<svg width="48" height="48" viewBox="0 0 48 48" fill="none" xmlns="http://www.w3.org/2000/svg">
<circle cx="24" cy="24" r="24" fill="#FACD5C"/>
<path d="M23.5 15C19.3579 15 16 18.0378 16 21.7852C16 23.0384 16.2711 24.3327 17.0492 25.2656L23.5 33L29.9508 25.2656C30.6575 24.4183 31 22.9203 31 21.7852C31 18.0378 27.6421 15 23.5 15ZM23.5 18.9298C25.2429 18.9298 26.6562 20.2084 26.6562 21.7851C26.6562 23.3619 25.2429 24.6405 23.5 24.6405C21.7572 24.6405 20.3438 23.3619 20.3438 21.7852C20.3438 20.2084 21.7572 18.9298 23.5 18.9298Z" fill="#030A1B"/>
</svg>
