<svg width="24" height="16" viewBox="0 0 24 16" fill="none" xmlns="http://www.w3.org/2000/svg">
<path fill-rule="evenodd" clip-rule="evenodd" d="M17.9745 0H0L6.58723 15.3191H24L17.9745 0ZM12.766 13.0213C10.5191 13.0213 8.68085 11.183 8.68085 8.93617C8.68085 6.68936 10.5191 4.85106 12.766 4.85106C15.0128 4.85106 16.8511 6.68936 16.8511 8.93617C16.8511 11.183 15.0128 13.0213 12.766 13.0213ZM17.1064 3.57447H3.31915V2.55319H17.1064V3.57447ZM12.3064 9.03831L11.5915 8.37448L10.8766 9.08937L12.3064 10.5192L14.6553 8.0681L13.9404 7.3532L12.3064 9.03831ZM0.255319 15.3192H6.02553L0.255319 1.88937V15.3192Z"/>
</svg>
