<svg width="24" height="17" viewBox="0 0 24 17" fill="none" xmlns="http://www.w3.org/2000/svg">
<path fill-rule="evenodd" clip-rule="evenodd" d="M18 0C19.32 0 20.4 1.08 20.4 2.4V5.58C20.4 6.12 20.22 6.648 19.872 7.08L15.696 12.3C15.24 12.864 14.556 13.2 13.824 13.2H9.6C9.6 15.192 7.992 16.8 6 16.8C4.008 16.8 2.4 15.192 2.4 13.2H1.2C0.54 13.2 0 12.66 0 12V9.6C0 6.948 2.148 4.8 4.8 4.8H8.4C9.06 4.8 9.6 5.34 9.6 6V10.8H13.824L18 5.58V2.4H15.6C14.94 2.4 14.4 1.86 14.4 1.2C14.4 0.54 14.94 0 15.6 0H18ZM4.8 13.2C4.8 13.86 5.34 14.4 6 14.4C6.66 14.4 7.2 13.86 7.2 13.2H4.8ZM8.4 1.2H4.8C4.14 1.2 3.6 1.74 3.6 2.4C3.6 3.06 4.14 3.6 4.8 3.6H8.4C9.06 3.6 9.6 3.06 9.6 2.4C9.6 1.74 9.06 1.2 8.4 1.2ZM16.8 13.2C16.8 11.208 18.408 9.6 20.4 9.6C22.392 9.6 24 11.208 24 13.2C24 15.192 22.392 16.8 20.4 16.8C18.408 16.8 16.8 15.192 16.8 13.2ZM19.2 13.2C19.2 13.86 19.74 14.4 20.4 14.4C21.06 14.4 21.6 13.86 21.6 13.2C21.6 12.54 21.06 12 20.4 12C19.74 12 19.2 12.54 19.2 13.2Z"/>
</svg>
