<svg width="18" height="18" viewBox="0 0 18 18" fill="none" xmlns="http://www.w3.org/2000/svg">
<path fill-rule="evenodd" clip-rule="evenodd" d="M15.0714 3.64272C15.0714 3.05098 14.5917 2.57129 13.9999 2.57129H3.28566C2.69393 2.57129 2.21423 3.05098 2.21423 3.64272C2.21423 4.23445 2.69393 4.71415 3.28566 4.71415H13.9999C14.5917 4.71415 15.0714 4.23445 15.0714 3.64272ZM7.03566 8.64272C7.03566 8.05098 7.51536 7.57129 8.10709 7.57129H13.9999C14.5917 7.57129 15.0714 8.05098 15.0714 8.64272C15.0714 9.23445 14.5917 9.71415 13.9999 9.71415H8.10709C7.51536 9.71415 7.03566 9.23445 7.03566 8.64272ZM2.21423 13.6427C2.21423 13.051 2.69393 12.5713 3.28566 12.5713H10.2499C10.8417 12.5713 11.3214 13.051 11.3214 13.6427C11.3214 14.2345 10.8417 14.7141 10.2499 14.7141H3.28566C2.69393 14.7141 2.21423 14.2345 2.21423 13.6427Z" fill="#030A1B"/>
</svg>
