<svg width="14" height="14" viewBox="0 0 14 14" fill="none" xmlns="http://www.w3.org/2000/svg">
<path fill-rule="evenodd" clip-rule="evenodd" d="M12.0817 0.333252H1.91814C1.04278 0.333252 0.333252 1.04096 0.333252 1.9145V12.0853C0.333252 12.9585 1.04278 13.6666 1.91814 13.6666H12.0817C12.9571 13.6666 13.6666 12.9585 13.6666 12.0853V1.9145C13.6666 1.04096 12.9571 0.333252 12.0817 0.333252ZM7.01534 4.45731C8.43149 4.45731 9.5796 5.60288 9.5796 7.01538C9.5796 8.42825 8.43149 9.57345 7.01534 9.57345C5.59957 9.57345 4.45145 8.42825 4.45145 7.01538C4.45145 5.60288 5.59957 4.45731 7.01534 4.45731ZM12.4166 11.9999C12.4166 12.2297 12.23 12.4166 11.9998 12.4166H1.99993C1.76973 12.4166 1.58316 12.2297 1.58316 11.9999V5.74978H3.24987C3.03276 6.06218 2.9593 6.64515 2.9593 7.01536C2.9593 9.2465 4.77912 11.062 7.01534 11.062C9.25193 11.062 11.0717 9.2465 11.0717 7.01536C11.0717 6.64515 11.019 6.07127 10.7499 5.74978H12.4166V11.9999Z" fill="#030A1B"/>
</svg>
