<svg width="139" height="81" viewBox="0 0 139 81" fill="none" xmlns="http://www.w3.org/2000/svg">
<g clip-path="url(#clip0_33_11)">
<path d="M24.2529 14.0833C24.2529 14.0833 24.2885 12.2702 24.0751 11.4169C23.7907 10.137 23.3285 8.85709 22.5464 7.79051C21.6931 6.58172 20.5199 5.62179 19.2755 4.80408C18.209 4.12858 17.0357 3.59529 15.8269 3.34642C14.4759 3.062 13.0183 3.062 11.6317 3.34642C10.2807 3.63084 8.96524 4.19969 7.792 4.91074C6.86763 5.47958 6.01437 6.26174 5.30331 7.11501C4.59226 7.93272 4.02342 8.85709 3.59678 9.85257C3.24126 10.6703 3.02794 11.5591 2.85018 12.4479C2.70796 13.159 2.60131 13.87 2.60131 14.5811C2.60131 15.0433 2.74352 15.5055 2.85018 15.9676C2.92128 16.3587 3.17015 16.7498 3.09904 17.1053C2.95683 17.8875 2.17467 18.4208 1.81915 19.0963C1.10809 20.4473 0.361485 21.8338 0.112616 23.3626C-0.100701 24.6781 0.00595769 26.0646 0.290379 27.3801C0.645907 28.9799 1.28586 30.5087 2.17467 31.8597C3.02794 33.1752 4.16563 34.3484 5.44552 35.2728C6.65432 36.126 8.07643 36.7304 9.49853 37.086C10.8851 37.4415 12.3783 37.477 13.8004 37.3348C15.1159 37.1926 16.3602 36.7304 17.569 36.2327C18.3156 35.9127 19.0267 35.5572 19.7022 35.095C20.3421 34.6328 21.4798 33.5307 21.4798 33.5307C21.4798 33.5307 22.2264 34.5617 22.6886 34.9883C23.5063 35.6994 24.4662 36.3038 25.4973 36.6949C26.5638 37.086 27.7015 37.1926 28.8392 37.2282C29.7991 37.2637 30.7946 37.2282 31.7545 37.0504C32.6078 36.8726 34.1721 36.1971 34.1721 36.1971L34.421 36.0905C34.421 36.0905 35.132 36.5171 35.5231 36.6949C35.8787 36.8726 36.2697 37.0504 36.6608 37.1215C37.5141 37.2993 38.4029 37.1571 39.2562 37.1926C40.6072 37.2282 43.3092 37.2637 43.3092 37.2637L32.6789 39.468L34.5632 45.1209C34.5632 45.1209 35.5587 44.9431 36.0209 45.0498C36.483 45.1564 37.1585 45.3342 37.5496 45.7253C38.0118 46.1519 38.2607 46.7919 38.3318 47.4318C38.4029 47.8584 38.3318 48.3206 38.154 48.7117C37.9763 49.1028 37.6918 49.4583 37.3719 49.7427C37.1585 49.9205 36.9452 50.1338 36.6964 50.2405C36.483 50.3471 36.0209 50.3471 36.0209 50.3471L38.154 55.9289C38.154 55.9289 40.4294 55.4312 41.5671 55.1823C43.9847 54.7201 46.4023 54.2579 48.8554 53.9024C51.0952 53.5824 53.335 53.2624 55.6104 53.0491C57.8858 52.8358 60.1967 52.658 62.4721 52.5514C64.8186 52.4447 67.165 52.3381 69.5115 52.3736C72.6757 52.4092 75.8399 52.5514 79.0041 52.7292C81.2795 52.8714 83.5548 53.0847 85.7947 53.3335C88.2123 53.618 90.6298 53.9379 93.0119 54.3646C94.434 54.6134 95.8561 55.0045 97.2782 55.3245C98.167 55.5378 99.8735 56 99.8735 56L101.651 50.4182C101.651 50.4182 101.047 50.0271 100.798 49.7427C100.407 49.2805 100.087 48.7472 99.9446 48.1784C99.838 47.6807 99.838 47.1474 100.016 46.6496C100.158 46.1519 100.478 45.6897 100.869 45.3697C101.189 45.1209 101.616 44.9431 102.007 44.872C102.362 44.8009 102.718 44.872 103.038 44.9431C103.18 44.9787 103.393 45.0498 103.393 45.0498L105.171 39.468C105.171 39.468 102.54 38.828 101.225 38.5436C99.4114 38.1525 95.7494 37.4415 95.7494 37.4415L94.6117 37.2637C94.6117 37.2637 95.6783 36.9793 96.2116 36.766C96.6738 36.5882 97.136 36.3393 97.5271 36.126C97.5982 36.0905 97.7759 36.0194 97.7759 36.0194C97.7759 36.0194 98.3803 36.5171 98.7359 36.6949C99.3758 36.9793 100.051 37.086 100.727 37.1926C101.829 37.3704 102.967 37.477 104.069 37.3704C105.42 37.2637 106.806 37.0148 108.086 36.5171C109.117 36.126 110.077 35.5572 110.93 34.8817C111.606 34.3484 112.139 33.6018 112.708 32.9263C112.886 32.713 113.206 32.2508 113.206 32.2508C113.206 32.2508 113.775 33.0329 114.13 33.3885C114.628 33.9573 115.161 34.5617 115.766 35.0239C116.441 35.5572 117.223 36.0194 118.005 36.4105C118.61 36.7304 119.285 36.9793 119.961 37.1571C120.814 37.3704 121.703 37.477 122.556 37.5126C123.516 37.5481 124.512 37.5837 125.472 37.4059C126.431 37.2282 127.391 36.8371 128.28 36.3749C128.956 36.0194 130.093 35.0239 130.093 35.0239C130.093 35.0239 130.947 35.2017 131.373 35.2017C132.298 35.2017 133.258 35.0594 134.182 34.8461C135.426 34.5262 137.844 33.4951 137.844 33.4951L138.448 33.1752L136.315 19.5229L134.502 20.5539C134.502 20.5539 133.897 19.0963 133.471 18.4208C133.044 17.7808 132.475 17.2831 132.013 16.6431C131.871 16.4298 131.587 16.0387 131.587 16.0387C131.587 16.0387 132.155 13.87 132.369 12.7679C132.618 11.488 132.973 8.9282 132.973 8.9282L121.134 6.11953C121.134 6.11953 120.21 4.98185 119.605 4.55521C118.965 4.05748 118.254 3.6664 117.472 3.41753C116.726 3.16866 115.943 3.02645 115.161 3.062C114.308 3.09755 113.455 3.31087 112.673 3.59529C111.961 3.84416 111.286 4.19969 110.717 4.69742C109.971 5.37293 109.402 6.22619 109.011 7.11501C108.691 7.82606 108.584 8.64378 108.513 9.42594C108.477 10.0659 108.513 10.7414 108.62 11.3813C108.726 11.8791 109.117 12.839 109.117 12.839C109.117 12.839 108.122 12.2702 107.588 12.0924C106.629 11.808 105.633 11.6658 104.602 11.5947C103.678 11.5591 102.718 11.5591 101.793 11.7724C100.371 12.0924 98.9847 12.6612 97.7404 13.4078C96.8871 13.9056 96.1761 14.6522 95.5006 15.3632C94.9673 15.8965 93.9718 17.1409 93.9718 17.1409L92.9408 16.4654C92.9408 16.4654 94.0429 15.0788 94.4695 14.2611C95.0739 13.0879 95.6783 11.808 95.8561 10.4925C96.0694 8.9993 96.0694 7.43498 95.6072 6.01287C95.2517 4.80408 94.5406 3.70195 93.6518 2.77758C92.7986 1.88876 91.732 1.1777 90.6298 0.715519C89.4921 0.253334 88.2123 0.0400176 86.9679 0.00446487C85.7591 -0.0310878 84.5503 0.146676 83.3771 0.502203C82.4527 0.786625 81.5283 1.1777 80.7106 1.711C79.8218 2.27984 79.0396 2.99089 78.3286 3.77305C77.902 4.23524 77.2976 5.33737 77.2976 5.33737L76.942 5.94177C76.942 5.94177 76.4088 5.05295 76.1599 4.59077C75.7688 3.84416 75.3066 3.1331 75.1289 2.35094C75.0577 1.95986 75.1289 1.14215 75.1289 1.14215L63.4676 5.15961C63.4676 5.15961 63.6809 6.15509 63.8231 6.61727C64.1786 7.75496 64.5697 8.85709 65.0319 9.95923C65.3163 10.6347 66.0629 11.9146 66.0629 11.9146C66.0629 11.9146 64.6408 12.3413 64.0009 12.6968C63.2187 13.1234 62.5432 13.7278 61.8677 14.3322C61.5122 14.6522 61.1922 15.0433 60.9078 15.4343C60.6945 15.7543 60.3745 16.3943 60.3745 16.3943C60.3745 16.3943 59.4501 15.0788 58.8457 14.51C57.9924 13.6923 57.0681 12.9101 56.0015 12.4479C54.7571 11.9146 53.335 11.808 51.984 11.7724C50.4553 11.7724 47.5044 12.4479 47.5044 12.4479L39.0073 14.51C39.0073 14.51 37.9407 13.7278 37.3719 13.4078C36.1631 12.7679 34.9543 12.0924 33.6033 11.8435C32.2167 11.5591 30.7946 11.7013 29.4081 11.8435C28.4126 11.9502 27.4171 12.1279 26.4927 12.519C25.7106 12.9101 24.2529 14.0833 24.2529 14.0833Z" fill="#299D9A"/>
<path d="M103.962 19.8785C104.247 19.8785 104.567 19.914 104.815 19.9851C105.242 20.1273 105.669 20.3406 106.024 20.6251C106.415 20.945 106.7 21.4072 106.949 21.8339C107.162 22.296 107.304 22.7938 107.34 23.3626C107.411 24.0026 107.411 24.6425 107.34 25.2469C107.269 25.8513 107.126 26.4557 106.842 26.989C106.593 27.4867 106.237 27.9489 105.846 28.3045C105.455 28.66 104.958 28.98 104.46 29.1577C104.069 29.2999 103.607 29.3355 103.18 29.2999C102.647 29.2644 102.149 29.0866 101.687 28.8377C101.26 28.5889 100.94 28.2333 100.656 27.8423C100.371 27.4156 100.158 26.9179 100.016 26.4557C99.838 25.8869 99.7313 25.2825 99.7669 24.6781C99.8024 24.1448 99.9447 23.6115 100.158 23.0782C100.371 22.5449 100.585 22.0116 100.94 21.585C101.367 21.0517 101.758 20.6606 102.291 20.3406C102.718 20.0918 103.216 19.914 103.678 19.8785C103.784 19.8785 103.855 19.8785 103.962 19.8785ZM123.125 11.0614C123.125 11.0614 123.054 11.6658 122.983 11.9502C122.77 12.9812 122.45 13.9767 122.094 14.9366C121.738 15.9677 121.383 16.9987 120.956 17.9586C120.565 18.8119 120.139 19.6651 119.641 20.4829C119.499 20.7317 119.143 21.1584 119.143 21.1584L121.596 23.5759L121.845 23.7181C121.845 23.7181 122.841 22.8649 123.303 22.4027C123.765 21.9405 124.583 20.9095 124.583 20.9095C124.583 20.9095 125.294 21.8339 125.543 22.3316C125.898 22.936 126.218 23.5759 126.396 24.287C126.574 24.9625 126.716 25.6735 126.609 26.3491C126.538 26.8823 126.325 27.4512 126.005 27.8778C125.72 28.3045 125.365 28.66 124.903 28.9088C124.369 29.1577 123.729 29.2288 123.125 29.1933C122.556 29.1577 121.987 28.98 121.49 28.7311C120.814 28.4111 120.21 27.9489 119.676 27.4512C119.072 26.8823 118.574 26.2424 118.148 25.5669C117.863 25.1403 117.472 24.1448 117.472 24.1448L117.33 23.5048L114.024 25.4602C114.024 25.4602 114.059 25.8869 114.095 26.0646C114.272 26.7757 114.592 27.4512 114.948 28.0911C115.41 28.9088 115.943 29.6555 116.583 30.331C117.117 30.8998 117.685 31.3975 118.361 31.8242C119.036 32.2864 119.783 32.6419 120.565 32.9263C121.205 33.1752 121.845 33.3885 122.521 33.4596C123.445 33.5663 124.44 33.5663 125.329 33.3174C126.147 33.0685 126.858 32.5708 127.569 32.073C128.031 31.7531 128.849 30.9709 128.849 30.9709C128.849 30.9709 129.382 31.0065 129.631 31.0065C130.236 31.042 130.804 31.1131 131.409 31.042C132.049 31.0065 133.258 30.6865 133.258 30.6865L133.755 30.6154L133.186 26.3491L133.009 26.2424L131.871 26.6335L131.018 26.8112C131.018 26.8112 131.196 25.9935 131.196 25.5669C131.196 24.5714 131.089 23.6115 130.804 22.6516C130.591 21.905 130.236 21.1939 129.844 20.5184C129.489 19.914 129.027 19.3452 128.565 18.8119C128.174 18.3497 127.747 17.9231 127.32 17.4964C127.107 17.2831 126.645 16.9631 126.645 16.9631C126.645 16.9631 127.142 16.1099 127.356 15.6477C127.64 14.9722 127.889 14.2967 128.102 13.5856C128.245 13.159 128.422 12.2702 128.422 12.2702L127.285 12.0213L123.125 11.0614ZM86.8257 7.9683C87.0035 7.9683 87.1812 7.9683 87.3234 8.0394C87.5368 8.11051 87.679 8.32382 87.7501 8.50159C87.8923 8.82156 87.8923 9.21264 87.8567 9.56817C87.8212 9.88814 87.7501 10.2437 87.5723 10.5281C87.359 10.9192 87.039 11.2036 86.719 11.488C86.328 11.8435 85.8658 12.0924 85.4036 12.3413C84.7281 12.6968 83.306 13.159 83.306 13.159L82.5238 13.4079L82.5594 13.1234C82.5594 13.1234 83.0927 11.5236 83.4837 10.777C83.8748 10.0659 84.2659 9.28375 84.8703 8.75046C85.2614 8.39493 85.7591 8.14606 86.2569 8.0394C86.4702 8.00385 86.6479 7.9683 86.8257 7.9683ZM13.5871 7.39945C13.2316 7.39945 12.876 7.39945 12.5205 7.47056C11.5961 7.61277 10.7429 8.00385 9.96072 8.46603C9.42743 8.78601 8.96524 9.21264 8.57416 9.71038C8.14753 10.2081 7.82756 10.7414 7.54314 11.3103C7.25871 11.8791 7.08095 12.4835 6.93874 13.0879C6.83208 13.5145 6.79653 13.9767 6.79653 14.4033C6.79653 14.83 6.83208 15.2566 6.93874 15.6832C7.08095 16.3232 7.22316 16.9987 7.54314 17.5675C7.82756 18.0653 8.21864 18.4919 8.64527 18.883C9.17856 19.3807 9.81851 19.7718 10.4585 20.1273C11.0629 20.4829 11.7384 20.6962 12.3428 20.9806C13.0538 21.3006 13.8004 21.585 14.5115 21.9761C14.9025 22.2249 15.3292 22.4383 15.6847 22.7582C15.9336 23.0071 16.1469 23.2915 16.2891 23.6115C16.4313 23.967 16.538 24.3581 16.538 24.7492C16.538 25.2114 16.4669 25.638 16.2891 26.0646C16.1113 26.5268 15.8269 26.989 15.4714 27.3445C15.1514 27.7001 14.7603 27.9845 14.3337 28.1978C13.9782 28.3756 13.5871 28.4467 13.196 28.4822C12.7338 28.5178 12.2361 28.5178 11.7739 28.4111C11.134 28.2689 10.5296 27.9845 10.0318 27.5578C9.56964 27.1312 9.14301 26.5979 8.96524 25.9935C8.78748 25.4247 8.78748 24.8203 8.89414 24.2514C8.96524 23.8959 9.17856 23.5759 9.35632 23.2915C9.42743 23.1493 9.6763 22.9004 9.6763 22.9004L5.40997 21.265C5.40997 21.265 4.98334 21.905 4.84113 22.2605C4.55671 23.0426 4.34339 23.967 4.30784 24.7136C4.27229 25.4602 4.34339 26.2424 4.52115 26.9534C4.69892 27.7001 5.01889 28.3756 5.37442 29.0511C5.7655 29.7621 6.22769 30.4732 6.79653 31.042C7.18761 31.4686 7.61424 31.7886 8.11198 32.1086C8.46751 32.3219 8.82303 32.5352 9.17856 32.6774C9.88962 32.9619 10.6718 33.1752 11.4539 33.2463C12.2361 33.3174 13.0183 33.2818 13.7649 33.1396C14.7248 32.9619 15.6847 32.6419 16.5735 32.1797C17.4268 31.7175 18.1734 31.2198 18.8845 30.4732C19.4533 29.9043 19.9866 29.2288 20.3777 28.5178C20.7332 27.8067 20.9465 27.0246 21.0887 26.2779C21.1954 25.7091 21.2665 25.1047 21.2665 24.5003C21.2665 23.8248 21.1954 23.1849 21.0176 22.5449C20.7687 21.7983 20.3421 21.0872 19.8799 20.4473C19.56 19.9851 19.1689 19.5229 18.7067 19.1318C17.9245 18.5275 16.9646 18.1364 16.0758 17.7097C15.1159 17.2476 14.0848 17.0342 13.1605 16.5365C12.5561 16.181 11.8806 15.8254 11.525 15.2211C11.3117 14.8655 11.2051 14.4744 11.2406 14.0478C11.2762 13.5856 11.4184 13.1234 11.6673 12.7679C11.9517 12.4124 12.3783 12.2346 12.7694 12.0569C13.0538 11.9502 13.3382 11.8791 13.6227 11.8791C13.9782 11.8791 14.3337 11.9502 14.6181 12.128C14.9025 12.3057 15.1159 12.6257 15.2936 12.9101C15.4358 13.1945 15.4714 13.5145 15.5425 13.8345C15.5781 14.0478 15.6136 14.4389 15.6136 14.4389L19.9866 13.6923C19.9866 13.6923 19.951 12.6613 19.8088 12.1635C19.6311 11.5591 19.4177 10.9192 19.0622 10.3859C18.5645 9.63927 17.9245 8.92822 17.1779 8.39493C16.6446 8.00385 16.0047 7.75498 15.3647 7.61277C14.7959 7.50611 14.1915 7.39945 13.5871 7.39945ZM115.303 7.22169C115.126 7.22169 114.912 7.25724 114.735 7.29279C114.379 7.3639 114.024 7.57722 113.739 7.79053C113.419 8.0394 113.17 8.35938 112.993 8.67935C112.779 9.03488 112.637 9.46151 112.601 9.85259C112.566 10.1726 112.601 10.4925 112.708 10.8125C112.779 11.0969 112.957 11.3814 113.099 11.5947C113.206 11.7369 113.312 11.808 113.49 11.9858C113.526 12.0213 113.632 12.128 113.632 12.128C113.632 12.128 113.455 13.2301 113.312 13.7634C113.206 14.1545 113.099 14.5811 112.921 14.9366C112.886 15.0077 112.815 15.1144 112.815 15.1144C112.815 15.1144 113.668 15.8254 114.059 16.181C114.415 16.5009 115.055 17.1764 115.055 17.1764L115.232 17.3542C115.232 17.3542 116.228 15.861 116.583 15.1144C116.974 14.2611 117.33 13.3368 117.579 12.4479C117.757 11.7724 117.934 11.0614 117.97 10.3503C118.005 9.92369 118.077 9.49706 117.934 9.07043C117.757 8.53714 117.437 8.0394 117.046 7.68387C116.726 7.435 116.334 7.25724 115.943 7.18614C115.695 7.25724 115.517 7.22169 115.303 7.22169ZM87.0035 4.19971C86.8613 4.19971 86.7546 4.19971 86.6124 4.19971C86.4346 4.19971 86.2569 4.23526 86.0791 4.23526C85.3325 4.30637 84.5859 4.51968 83.9459 4.87521C83.306 5.19518 82.7371 5.62182 82.2038 6.11955C81.6706 6.61729 81.2084 7.22169 80.8173 7.82608C80.4262 8.35938 80.1062 8.92822 79.8218 9.53262C79.6085 9.9948 79.4663 10.5281 79.3241 11.0258C79.1819 11.488 78.9686 12.4124 78.9686 12.4124L78.8619 13.159C78.8619 13.159 78.0442 12.9101 77.6531 12.7324C76.9065 12.3768 76.1954 11.9146 75.591 11.3458C75.0933 10.8836 74.56 10.2081 74.1334 9.60372C73.7779 9.14153 73.4934 8.6438 73.2446 8.11051C73.0312 7.68387 72.7113 6.72395 72.7113 6.72395L68.9782 7.93274C68.9782 7.93274 69.2627 8.82156 69.4404 9.24819C69.7248 9.88814 70.0448 10.5281 70.4359 11.1325C70.7559 11.6302 71.147 12.0924 71.538 12.5546C71.8936 12.9812 72.2491 13.4079 72.6757 13.7989C73.1379 14.2611 73.6357 14.7233 74.1334 15.1499C74.6667 15.5766 75.2 16.0032 75.8044 16.2876C76.3732 16.5721 77.5464 16.9276 77.5464 16.9276L78.0797 17.0698C78.0797 17.0698 77.9375 19.4874 77.8664 20.6962C77.8309 21.5494 77.7953 22.4027 77.7598 23.2915C77.7598 23.8604 77.902 24.4292 77.7598 24.9625C77.6531 25.4247 77.4042 25.8869 77.1198 26.2779C76.6932 26.8468 76.1243 27.2734 75.591 27.7001C75.0933 28.0911 74.5956 28.4822 74.0267 28.7666C73.3868 29.0511 72.6757 29.2644 71.9647 29.3355C71.4314 29.4066 70.8981 29.371 70.3648 29.2644C69.7604 29.1577 69.156 28.98 68.6227 28.66C68.1605 28.3756 67.7695 27.9845 67.485 27.5578C67.0939 27.0246 66.7384 26.4202 66.5962 25.7802C66.3829 24.8914 66.3829 23.967 66.5251 23.0782C66.6318 22.5094 66.8095 21.9405 67.1295 21.4783C67.5561 20.8739 68.1605 20.4117 68.7649 20.0918C69.0849 19.914 69.4049 19.8429 69.7604 19.8074C70.1159 19.7718 70.507 19.8074 70.8625 19.9496C71.147 20.0562 71.3958 20.2695 71.6091 20.4829C71.8936 20.7673 72.2491 21.4072 72.2491 21.4072L72.4624 21.8339L75.6266 19.4163C75.6266 19.4163 75.3777 18.8474 75.2 18.563C74.7733 17.9942 74.2756 17.4964 73.7423 17.0698C73.2446 16.6787 72.7113 16.3232 72.1069 16.1099C71.5025 15.861 70.827 15.7543 70.187 15.7188C69.4049 15.6832 68.6227 15.7188 67.8761 15.8966C67.2006 16.0743 66.5251 16.3232 65.9563 16.6787C65.3519 17.0342 64.783 17.4964 64.3208 18.0297C63.8231 18.5986 63.3965 19.3096 63.0765 19.9851C62.7565 20.6606 62.5432 21.3717 62.3654 22.1183C62.2232 22.6871 62.081 23.256 61.9744 23.8248C61.9033 24.287 61.9388 24.7492 61.8677 25.2114C61.7966 25.638 61.7255 26.0291 61.5477 26.4202C61.2989 26.989 60.9789 27.5578 60.5878 28.0556C60.3745 28.34 60.1256 28.66 59.8056 28.8733C59.5568 29.0511 59.2724 29.1933 58.9524 29.2644C58.7035 29.2999 58.4546 29.2644 58.2413 29.1577C58.028 29.0866 57.8502 28.9088 57.6725 28.7666C57.4592 28.5178 57.2458 28.2333 57.1392 27.8778C56.9614 27.309 56.997 26.669 57.0325 26.0646C57.0325 25.2469 57.2103 24.4292 57.2814 23.647C57.3525 22.7938 57.4592 21.9761 57.3881 21.1228C57.3169 20.4473 57.2103 19.7362 56.9614 19.1318C56.677 18.4919 56.2859 17.8875 55.7882 17.4253C55.3971 17.0342 54.8638 16.7854 54.3661 16.5365C53.7261 16.2521 53.0151 16.0388 52.304 16.0032C51.6285 15.9677 50.9175 16.0388 50.242 16.2521C49.7087 16.4298 49.1754 16.6787 48.7132 16.9987C48.3932 17.212 48.1088 17.4964 47.8244 17.7808C47.5755 18.0297 47.1489 18.563 47.1489 18.563C47.1489 18.563 47.1133 17.9231 47.1133 17.6386C47.1133 17.2476 47.1489 16.5009 47.1489 16.5009L43.0959 17.3898C43.0959 17.3898 43.0959 19.0607 43.0959 20.0562C43.0959 21.6205 43.3092 23.5048 43.1314 25.0692C43.0959 25.3891 43.0248 25.7091 42.8825 25.9935C42.6337 26.5624 41.9226 27.629 41.9226 27.629C41.9226 27.629 41.2471 28.4111 40.8205 28.6955C40.5361 28.8733 40.2516 29.0511 39.9317 29.0866C39.5761 29.1222 39.1851 29.0511 38.8651 28.8733C38.5096 28.66 38.2962 28.2689 38.154 27.9134C37.9407 27.3801 37.9052 26.8112 37.8341 26.2424C37.763 25.5669 37.8341 24.8558 37.8696 24.1803C37.8696 23.967 37.9052 23.5404 37.9052 23.5404L33.6388 24.287C33.6388 24.287 33.6388 25.3536 33.5322 25.8513C33.4255 26.3135 33.2122 26.7401 32.9633 27.1668C32.6789 27.629 32.3589 28.0911 31.9323 28.4467C31.5412 28.8022 31.1146 29.1222 30.6169 29.2644C30.2258 29.371 29.7636 29.371 29.3725 29.2999C28.9103 29.1933 28.4481 29.0155 28.1282 28.66C27.7371 28.2689 27.5238 27.7356 27.3105 27.2023C27.1327 26.669 27.026 26.1357 26.9905 25.5669C26.9549 24.8914 26.9905 24.1803 27.1682 23.5404C27.346 22.936 27.6304 22.4027 28.0215 21.905C28.4126 21.3717 28.9103 20.8384 29.4792 20.4829C29.9058 20.1984 30.4391 20.0207 30.9368 19.9496C31.3635 19.8785 31.7901 19.914 32.1812 20.0207C32.5367 20.0918 32.9278 20.234 33.2122 20.4829C33.4255 20.6606 33.7455 21.0161 33.9588 21.3006C34.1366 21.5494 34.421 22.0827 34.421 22.0827L37.6563 19.6651C37.6563 19.6651 37.0519 18.7763 36.6608 18.3852C35.9853 17.7097 35.3098 16.9987 34.4565 16.5721C33.6388 16.181 32.7856 16.0743 31.7545 16.0032C30.8657 15.9677 29.9414 16.0388 29.0881 16.3232C28.0571 16.6432 27.0616 17.2476 26.2083 17.9231C25.4973 18.4919 24.9284 19.1674 24.4307 19.914C24.0396 20.4829 23.7907 21.0872 23.5419 21.7272C23.293 22.3316 23.0086 22.9715 22.8664 23.6115C22.6886 24.2514 22.5819 24.9269 22.5464 25.5669C22.5108 26.3135 22.5819 27.0601 22.6886 27.8067C22.7953 28.4111 22.9375 28.98 23.2219 29.5132C23.5419 30.1176 23.9685 30.6865 24.3951 31.1842C24.7862 31.6109 25.1773 32.073 25.675 32.393C26.1728 32.713 26.7772 32.9619 27.346 33.1041C28.0571 33.3174 28.8037 33.4596 29.5503 33.424C30.3324 33.3885 31.1146 33.1041 31.8256 32.8196C32.5011 32.5708 33.1411 32.2153 33.7099 31.7886C34.0655 31.5042 34.6343 30.8287 34.6343 30.8287L35.0254 31.5753C35.0254 31.5753 35.5231 32.2153 35.8431 32.4641C36.1986 32.7485 36.6608 32.9619 37.0875 33.1041C37.6563 33.2818 38.2962 33.3174 38.9006 33.3174C39.505 33.3174 40.1094 33.2818 40.6783 33.1041C41.1405 32.9619 41.5671 32.713 41.9582 32.4641C42.3137 32.2153 42.9892 31.6109 42.9892 31.6109L43.0959 31.5397L43.1314 33.0685L43.3092 33.2107H47.2911C47.2911 33.2107 47.2555 31.1842 47.2911 30.1887C47.3266 29.1933 47.3266 28.2333 47.4333 27.2379C47.5044 26.4913 47.6111 25.7447 47.7888 25.0336C47.9666 24.2514 48.2155 23.6826 48.4999 23.0782C48.7487 22.5449 49.0687 21.905 49.4242 21.5139C49.6731 21.2295 49.9575 20.945 50.3131 20.7317C50.5619 20.554 50.8108 20.3762 51.0952 20.3406C51.3796 20.3051 51.6285 20.4117 51.8774 20.554C52.1618 20.7317 52.3751 20.9806 52.5173 21.265C52.7306 21.6205 52.8729 22.4027 52.8729 22.4027C52.8729 22.4027 52.8729 23.8248 52.8729 24.5359C52.8373 25.638 52.6951 26.7046 52.7306 27.8067C52.7306 28.4111 52.7662 29.0155 52.9084 29.5843C53.0862 30.1887 53.2995 30.8287 53.655 31.362C53.9394 31.7886 54.295 32.1797 54.686 32.4997C55.1482 32.8552 55.6815 33.1752 56.2504 33.3529C56.997 33.6018 57.7791 33.7085 58.5613 33.6729C59.2368 33.6374 59.9123 33.4596 60.5167 33.2463C61.0855 33.033 61.6188 32.713 62.1521 32.393C62.4721 32.1797 62.7921 31.9308 63.0765 31.6464C63.3609 31.362 63.8231 30.722 63.8231 30.722L63.9298 30.4376L64.072 30.5443C64.072 30.5443 64.5697 31.1131 64.8541 31.362C65.2808 31.7531 65.7429 32.1441 66.2407 32.4641C66.774 32.7841 67.3428 32.9974 67.9472 33.1752C68.6583 33.3885 69.3693 33.5307 70.1159 33.5663C70.8981 33.6018 71.6091 33.6018 72.3202 33.4951C73.1024 33.3885 73.849 33.1396 74.5956 32.8908C75.2355 32.6774 75.9466 32.4286 76.4799 32.1441C76.8709 31.9308 77.582 31.362 77.582 31.362L77.7953 31.1131L77.9375 31.3264L77.8664 33.0685L77.9731 33.1041L82.0261 33.1396L82.1328 32.8908C82.1328 32.8908 81.9905 30.9709 81.9905 30.011C81.9905 29.0866 81.9905 28.1622 82.1328 27.2379C82.2394 26.4913 82.4883 25.7091 82.7371 24.998C82.8794 24.5359 83.0216 24.0737 83.306 23.647C83.5549 23.2915 83.8748 22.9715 84.2304 22.7227C84.5148 22.5094 84.8703 22.4027 85.2258 22.3316C85.5814 22.2605 85.9724 22.1894 86.2924 22.3316C86.6124 22.4738 86.8613 22.7938 87.039 23.0782C87.1812 23.2915 87.2523 23.5759 87.3234 23.8248C87.4301 24.2159 87.4657 24.607 87.4301 24.998C87.4301 25.6024 87.2168 26.1713 87.1812 26.7757C87.1457 27.2734 87.1101 27.8067 87.1457 28.3045C87.1812 28.8377 87.2523 29.371 87.4301 29.8688C87.6434 30.4732 87.8923 31.1131 88.3189 31.6109C88.6744 32.073 89.1722 32.393 89.6699 32.713C90.1321 32.9974 90.6298 33.2818 91.1631 33.3885C91.8031 33.5307 92.4786 33.5663 93.1185 33.4951C93.7585 33.424 94.3629 33.2107 94.9673 32.9619C95.5006 32.713 96.0339 32.4286 96.496 32.0375C96.8516 31.7175 97.3849 30.8998 97.3849 30.8998L97.5626 30.6509L97.8115 31.2198C97.8115 31.2198 98.4159 31.9664 98.807 32.2508C99.3403 32.6419 99.9446 32.9263 100.549 33.1396C101.189 33.3529 101.9 33.3885 102.576 33.4596C103.216 33.4951 103.891 33.5307 104.531 33.424C105.313 33.3174 106.095 33.0685 106.806 32.7485C107.517 32.393 108.193 31.9308 108.762 31.3975C109.295 30.8998 109.793 30.331 110.184 29.7266C110.682 28.9444 111.073 28.0911 111.322 27.2023C111.57 26.4202 111.606 25.5669 111.677 24.7492C111.713 24.1803 111.819 23.5759 111.748 23.0071C111.641 22.2249 111.606 21.5494 111.357 20.8739C111.108 20.234 110.646 19.5585 110.291 19.0607C109.793 18.3497 109.117 17.7808 108.406 17.2476C107.873 16.8565 107.411 16.6432 106.877 16.4298C106.344 16.2165 105.669 16.1099 105.171 16.0388C104.353 15.9677 103.5 15.8966 102.682 16.0032C101.936 16.1099 101.189 16.2876 100.514 16.6432C99.8025 16.9987 99.198 17.5675 98.6292 18.1364C98.0604 18.7052 97.5271 19.3452 97.1004 20.0207C96.6738 20.7317 96.2472 21.4428 95.9983 22.2249C95.785 22.8649 95.7494 23.5404 95.6783 24.2159C95.6428 24.6781 95.7139 25.1403 95.6783 25.6024C95.6428 25.8869 95.6072 26.2068 95.5006 26.4913C95.3228 26.9534 95.0739 27.4156 94.754 27.8423C94.434 28.2689 94.0429 28.66 93.6163 28.98C93.403 29.1222 93.1541 29.3355 92.9052 29.371C92.6563 29.4066 92.4075 29.3355 92.2297 29.2288C91.9809 29.0866 91.8031 28.8733 91.6609 28.6244C91.412 28.1622 91.3765 27.5934 91.3409 27.0601C91.3054 26.2779 91.4476 25.5313 91.5187 24.7492C91.5898 24.2159 91.7675 23.6826 91.7675 23.1138C91.7675 22.5449 91.732 21.9761 91.5898 21.4783C91.412 20.945 91.1631 20.4829 90.8076 20.0562C90.4165 19.5585 89.9543 19.1318 89.4211 18.8119C88.9589 18.5275 88.39 18.3497 87.8567 18.2075C87.2523 18.1008 86.6479 18.0653 86.0435 18.1008C85.6169 18.1364 85.1903 18.2075 84.7992 18.3497C84.3726 18.4919 84.017 18.7408 83.6615 18.9896C83.3771 19.1674 82.8794 19.5585 82.8794 19.5585L82.2038 20.3051L82.275 19.0252L82.3461 17.3898C82.3461 17.3898 83.3771 17.0698 83.8748 16.9276C84.7992 16.6432 85.7591 16.4298 86.6479 16.0032C87.6434 15.5055 88.5678 14.9366 89.3855 14.19C90.0255 13.6567 90.5587 12.9812 91.0209 12.3057C91.412 11.7013 91.732 11.0258 91.9097 10.3148C92.052 9.60372 92.0875 8.85711 91.9809 8.18161C91.8386 7.47056 91.5898 6.7595 91.1276 6.19066C90.7365 5.69292 90.0966 5.37295 89.5277 5.05297C89.1011 4.83966 88.6745 4.62634 88.2123 4.51968C87.7856 4.27081 87.3945 4.19971 87.0035 4.19971Z" fill="white"/>
<path d="M48.962 42.0633L49.3531 47.7518L50.5264 47.5029L50.4197 45.2631L52.7306 45.1209L52.8373 44.9075L52.7662 44.0187L50.2775 44.0543L50.2064 43.0588L52.6951 42.9877L52.624 41.8145L48.962 42.0633Z" fill="white"/>
<path d="M58.348 42.9521L59.2724 44.6942L57.6725 44.7653L58.348 42.9521ZM58.8457 41.2456L57.4592 41.3167L55.8237 46.8985H56.0015L57.1748 46.8274L57.4592 45.9386L59.6634 45.8319L60.1612 46.6141L61.4411 46.5074L58.8457 41.2456Z" fill="white"/>
<path d="M64.0008 40.9612L64.1786 46.543L65.6007 46.5074L65.4585 43.0232L66.8095 46.4363H67.485L68.8716 42.9166L68.9071 46.4363L70.2581 46.4719L70.2226 40.9967L68.4805 40.9612L67.2006 44.0898L65.9918 40.9967L64.0008 40.9612Z" fill="white"/>
<path d="M73.849 41.0322L73.7423 46.4007L73.7779 46.5429L75.0578 46.6496L75.3066 41.1389L73.849 41.0322Z" fill="white"/>
<path d="M79.0041 41.21L78.613 46.8628L82.2394 47.1117L82.3105 45.8674L79.9996 45.6541L80.284 41.3166L79.0041 41.21Z" fill="white"/>
<path d="M84.4792 41.7434L86.1857 44.9432L85.8302 47.3252L87.1101 47.5385L87.4301 45.192L89.8121 42.49L89.9188 42.3478L88.4256 42.0634L87.039 43.9832L86.008 41.8501L84.4792 41.7434Z" fill="white"/>
</g>
<path d="M70 81L59.6077 68.25L80.3923 68.25L70 81Z" fill="#299D9A"/>
<defs>
<clipPath id="clip0_33_11">
<rect width="139" height="56" fill="white"/>
</clipPath>
</defs>
</svg>
