<svg width="19" height="17" viewBox="0 0 19 17" fill="none" xmlns="http://www.w3.org/2000/svg">
<path d="M9.5 0C4.25273 0 0 3.45488 0 7.71875C0 9.55937 0.794141 11.2441 2.11523 12.5689C1.65137 14.4393 0.100195 16.1055 0.0816406 16.124C0 16.2094 -0.0222656 16.3355 0.0259766 16.4469C0.0742188 16.5582 0.178125 16.625 0.296875 16.625C2.75723 16.625 4.60156 15.4449 5.51445 14.7176C6.72793 15.174 8.075 15.4375 9.5 15.4375C14.7473 15.4375 19 11.9826 19 7.71875C19 3.45488 14.7473 0 9.5 0ZM4.75 8.90625C4.09316 8.90625 3.5625 8.37559 3.5625 7.71875C3.5625 7.06191 4.09316 6.53125 4.75 6.53125C5.40684 6.53125 5.9375 7.06191 5.9375 7.71875C5.9375 8.37559 5.40684 8.90625 4.75 8.90625ZM9.5 8.90625C8.84316 8.90625 8.3125 8.37559 8.3125 7.71875C8.3125 7.06191 8.84316 6.53125 9.5 6.53125C10.1568 6.53125 10.6875 7.06191 10.6875 7.71875C10.6875 8.37559 10.1568 8.90625 9.5 8.90625ZM14.25 8.90625C13.5932 8.90625 13.0625 8.37559 13.0625 7.71875C13.0625 7.06191 13.5932 6.53125 14.25 6.53125C14.9068 6.53125 15.4375 7.06191 15.4375 7.71875C15.4375 8.37559 14.9068 8.90625 14.25 8.90625Z"/>
</svg>
