<svg width="16" height="10" viewBox="0 0 16 10" fill="none" xmlns="http://www.w3.org/2000/svg">
<path fill-rule="evenodd" clip-rule="evenodd" d="M14.7572 1.39794C14.8569 1.06577 14.7572 0.833252 14.2922 0.833252H12.7421C12.3435 0.833252 12.1663 1.04363 12.0666 1.27615C12.0666 1.27615 11.2805 3.20274 10.1622 4.44285C9.79681 4.80824 9.64179 4.91896 9.44249 4.91896C9.34284 4.91896 9.1989 4.80824 9.1989 4.47607V1.39794C9.1989 0.999338 9.08817 0.833252 8.756 0.833252H6.32008C6.07648 0.833252 5.92147 1.02148 5.92147 1.18757C5.92147 1.56403 6.47509 1.65261 6.54152 2.69341V4.97433C6.54152 5.47258 6.45294 5.56116 6.25364 5.56116C5.73324 5.56116 4.44884 3.63457 3.69592 1.42009C3.5409 1.01041 3.39696 0.833252 2.99836 0.833252H1.44822C1.00533 0.833252 0.916748 1.04363 0.916748 1.27615C0.916748 1.68583 1.43715 3.72315 3.36375 6.41374C4.64814 8.25175 6.45294 9.24827 8.09166 9.24827C9.0771 9.24827 9.1989 9.02682 9.1989 8.65036V7.25524C9.1989 6.81234 9.28748 6.72376 9.60857 6.72376C9.84109 6.72376 10.2286 6.83449 11.1476 7.72028C12.1995 8.77216 12.3767 9.24827 12.9635 9.24827H14.5136C14.9565 9.24827 15.178 9.02682 15.0451 8.595C14.9012 8.16318 14.4029 7.53205 13.7386 6.77913C13.3732 6.3473 12.8306 5.89333 12.6756 5.66081C12.4431 5.36186 12.5095 5.22899 12.6756 4.97433C12.6756 4.96325 14.569 2.30588 14.7572 1.39794Z" fill="#030A1B"/>
</svg>
